<?xml version="1.0" standalone="no"?>
<!DOCTYPE svg PUBLIC "-//W3C//DTD SVG 20010904//EN"
 "http://www.w3.org/TR/2001/REC-SVG-20010904/DTD/svg10.dtd">
<svg version="1.0" xmlns="http://www.w3.org/2000/svg"
 width="820.000000pt" height="745.000000pt" viewBox="0 0 820.000000 745.000000"
 preserveAspectRatio="xMidYMid meet">

<g transform="translate(0.000000,745.000000) scale(0.100000,-0.100000)"
fill="#000000" stroke="none">
<path d="M6623 7041 c-17 -5 -80 -31 -140 -59 -146 -69 -240 -104 -420 -157
-300 -89 -405 -134 -508 -215 -115 -92 -262 -279 -447 -567 -61 -95 -114 -173
-118 -173 -19 0 -633 361 -824 484 -48 31 -90 55 -93 52 -3 -3 5 -25 18 -50
32 -64 132 -170 232 -246 48 -35 85 -65 84 -67 -2 -1 -43 4 -92 13 -50 8 -139
17 -198 21 l-109 6 -66 74 c-82 90 -219 211 -320 282 -154 107 -334 179 -357
142 -3 -6 22 -40 56 -78 106 -116 183 -237 239 -373 50 -120 41 -131 -66 -80
-189 91 -421 46 -574 -110 -82 -84 -143 -188 -226 -382 -36 -84 -77 -182 -93
-218 l-28 -65 -59 3 c-140 6 -286 56 -399 137 -101 73 -98 40 7 -71 l39 -41
-61 10 -60 10 -107 121 c-159 180 -241 257 -313 296 -61 33 -71 35 -155 35
-78 0 -97 -4 -148 -28 -174 -86 -270 -269 -271 -517 -1 -68 5 -138 13 -170 36
-141 126 -298 236 -414 53 -55 56 -61 50 -95 -4 -20 -9 -39 -11 -43 -3 -5 -51
-8 -106 -8 -56 0 -99 -2 -96 -5 2 -3 48 -5 101 -6 103 -1 106 -3 88 -51 -5
-15 -2 -58 9 -123 28 -154 58 -228 159 -394 28 -46 51 -87 51 -91 0 -4 -31
-21 -69 -38 -37 -17 -89 -49 -115 -71 -44 -38 -52 -41 -106 -41 -86 0 -347
-36 -475 -65 -126 -29 -327 -86 -322 -92 2 -2 46 8 98 22 216 57 567 115 695
115 l53 0 -6 -52 c-4 -40 0 -66 16 -106 l21 -53 -57 -26 c-202 -90 -312 -143
-418 -200 -151 -81 -288 -164 -282 -170 3 -2 47 19 98 48 136 76 651 329 669
328 8 0 35 -18 59 -39 43 -40 44 -40 38 -93 -4 -28 -31 -135 -60 -237 -64
-220 -81 -301 -81 -395 0 -99 25 -166 85 -228 l49 -51 -45 -39 c-24 -21 -77
-79 -116 -128 -39 -49 -75 -89 -79 -89 -27 0 -243 160 -373 276 -181 161 -214
187 -281 220 -79 38 -136 49 -202 39 -54 -8 -49 -15 28 -38 74 -23 187 -98
268 -178 36 -35 120 -129 186 -209 66 -80 158 -185 203 -235 l82 -90 -8 -60
c-26 -192 25 -373 165 -590 53 -83 142 -192 206 -255 25 -24 46 -48 46 -52 0
-4 -316 -9 -702 -10 -660 -3 -703 -4 -706 -21 -3 -16 37 -17 728 -17 l731 0
111 -87 c61 -49 122 -97 136 -109 l26 -21 -81 -12 c-95 -14 -212 -45 -257 -68
-128 -65 -171 -178 -99 -263 33 -40 70 -58 140 -71 38 -7 68 -20 90 -39 110
-97 424 -39 622 114 79 62 125 113 158 173 l29 51 68 -52 c275 -213 657 -267
793 -112 18 20 35 47 39 61 4 16 17 28 40 35 44 15 80 58 87 107 l6 38 88 3
c175 6 399 65 593 155 l94 43 27 -78 c78 -225 300 -460 524 -555 84 -36 208
-56 292 -49 287 26 442 189 593 623 l43 123 1188 0 c1182 0 1189 0 1189 20 0
19 -7 20 -99 20 -116 0 -98 -10 -341 185 -628 503 -1068 990 -1275 1406 l-62
127 -7 113 c-7 116 -28 268 -45 327 -11 37 -11 37 32 17 l32 -16 -25 22 c-14
12 -32 26 -40 33 -9 6 -33 46 -53 90 -21 43 -54 101 -74 128 -20 28 -32 53
-27 58 34 33 226 80 329 80 75 0 196 -23 269 -51 27 -10 52 -17 54 -14 2 2
-10 30 -27 61 -17 32 -29 59 -27 62 11 10 152 -96 233 -173 48 -46 89 -83 90
-81 2 2 -8 47 -22 102 -67 258 -249 509 -481 664 -43 29 -83 57 -89 62 -6 7
25 8 88 3 l99 -7 -15 29 c-9 15 -31 44 -51 62 -20 19 -36 39 -36 43 0 5 24 37
53 72 125 153 169 264 175 441 7 214 -43 372 -235 752 -67 133 -138 287 -157
342 -80 229 -94 468 -40 662 l17 61 96 62 c204 132 336 296 278 344 -19 16
-58 21 -94 13z m67 -50 c0 -18 -149 -149 -230 -203 -47 -31 -141 -86 -210
-123 -542 -290 -890 -705 -957 -1140 -18 -119 -13 -323 11 -433 30 -139 105
-293 168 -348 l22 -19 -21 30 c-11 17 -28 44 -37 62 l-16 31 47 -26 c161 -89
326 60 269 243 -8 27 -13 51 -11 53 16 17 115 -210 115 -264 0 -20 9 -18 76
14 52 24 71 27 154 27 77 -1 107 -5 155 -25 l60 -24 -55 -8 c-61 -9 -186 -66
-215 -98 -18 -19 -18 -20 1 -20 30 0 117 -46 149 -80 l28 -29 -54 20 c-82 32
-134 22 -181 -31 -21 -24 -38 -49 -38 -56 0 -18 -9 -18 -55 2 -98 41 -14 -29
96 -80 41 -19 142 -55 224 -81 83 -26 182 -63 220 -82 67 -34 169 -102 163
-109 -2 -1 -33 6 -70 16 -37 10 -93 21 -125 25 -32 3 -74 8 -93 11 l-35 5 50
-32 c219 -139 458 -395 610 -654 30 -51 55 -95 55 -97 0 -1 -31 27 -69 63
-107 101 -241 160 -361 158 l-55 -1 56 -19 c39 -14 69 -34 105 -70 27 -28 39
-46 27 -40 -81 41 -289 55 -390 26 -62 -18 -145 -57 -181 -86 -23 -17 -24 -17
-70 12 -79 50 -172 73 -292 73 -60 0 -121 -5 -143 -13 -34 -12 -45 -10 -146
24 l-109 36 -7 42 c-11 65 -50 159 -94 229 l-40 63 47 8 c26 4 110 8 187 9
116 1 151 -3 203 -20 62 -20 63 -20 46 -1 -10 11 -49 30 -88 42 -62 19 -93 22
-241 22 -93 0 -217 -7 -275 -15 -137 -18 -313 -19 -364 -1 -51 18 -39 23 104
50 268 49 521 71 822 71 283 0 532 -21 777 -65 65 -12 -74 27 -159 45 -186 38
-324 51 -585 57 -360 8 -612 -16 -914 -88 -68 -16 -125 -29 -127 -29 -11 0
-54 94 -63 141 -37 182 111 350 416 475 51 21 91 40 89 42 -13 13 -264 -77
-331 -118 -44 -27 -48 -26 -40 18 40 214 16 466 -61 628 -53 113 -158 214
-222 214 -30 0 -105 -55 -142 -105 l-34 -45 -18 48 c-37 99 -76 102 -121 10
-17 -34 -26 -46 -26 -32 -2 41 -32 124 -57 154 -71 84 -139 2 -184 -223 l-12
-59 -35 41 c-64 75 -114 51 -133 -64 -5 -32 -11 -59 -13 -61 -2 -2 -12 5 -22
16 -29 32 -68 26 -108 -20 -170 -188 -197 -598 -62 -932 6 -15 1 -18 -31 -18
-57 -1 -123 -18 -155 -41 l-28 -20 -41 21 -41 21 61 40 c138 93 159 165 125
449 -27 225 -18 364 34 511 10 31 26 69 34 84 l14 28 8 -34 c7 -32 8 -30 20
37 16 89 54 165 99 199 38 29 113 55 158 55 26 0 29 3 22 23 -3 12 -11 27 -16
34 -17 22 137 105 321 172 99 37 120 41 166 36 74 -10 76 -11 59 -75 -21 -80
-18 -83 31 -46 157 121 404 -26 470 -280 8 -32 18 -60 21 -63 14 -14 -3 235
-19 272 -17 40 -11 41 30 4 13 -11 25 -19 27 -16 9 9 -36 106 -69 152 -19 26
-54 61 -77 77 -43 31 -38 35 25 21 62 -15 39 18 -43 59 -31 16 -69 25 -123 28
-96 6 -151 -13 -202 -69 l-36 -40 -69 15 c-112 26 -270 19 -435 -19 -62 -14 0
15 105 49 110 36 229 60 365 72 l80 8 -85 12 c-47 7 -117 19 -155 27 -103 23
-298 38 -396 30 -46 -3 -82 -3 -79 0 3 4 62 14 130 23 186 24 524 15 720 -19
80 -14 153 -29 163 -32 9 -4 17 -5 17 -2 0 3 -26 15 -57 27 -55 20 -143 83
-310 222 -109 91 -114 103 -11 30 189 -135 486 -321 619 -387 38 -20 69 -38
69 -41 0 -3 -22 -43 -50 -90 -76 -129 -66 -127 43 9 40 50 111 146 157 212
176 256 362 471 508 587 90 71 190 120 387 187 222 77 436 164 555 225 104 55
130 64 130 47z m-412 -466 c-18 -58 -21 -99 -22 -240 -1 -244 32 -384 156
-649 101 -217 156 -359 190 -483 30 -111 32 -128 32 -288 0 -165 -1 -173 -32
-265 -25 -76 -103 -235 -127 -258 -2 -3 -36 9 -75 27 -39 17 -139 51 -223 75
-233 68 -233 68 -177 121 40 38 105 44 184 16 33 -11 61 -19 64 -17 7 8 -28
64 -60 97 -18 18 -55 42 -83 54 l-50 23 40 17 c51 21 181 55 214 55 14 0 32 4
40 9 19 12 -93 94 -160 116 -76 25 -178 17 -249 -21 -30 -16 -58 -30 -61 -32
-3 -1 -9 20 -12 48 -7 58 -39 135 -70 168 -26 28 -106 77 -113 69 -3 -2 0 -25
7 -51 18 -73 8 -157 -24 -200 -36 -46 -62 -60 -117 -60 -51 0 -143 44 -166 79
-23 35 -54 181 -63 292 -10 125 0 292 23 378 77 298 316 587 696 842 80 53
252 154 256 150 1 -1 -7 -34 -18 -72z m-2848 -25 c92 -46 244 -167 368 -291
61 -62 112 -115 112 -119 0 -3 -42 -11 -92 -18 -51 -6 -109 -15 -128 -18 l-36
-6 -57 117 c-59 121 -131 237 -199 318 -21 26 -37 47 -33 47 3 0 32 -13 65
-30z m50 -482 c33 -16 33 -17 13 -23 -12 -4 -48 -20 -80 -36 l-58 -29 55 5
c210 17 207 17 213 3 3 -8 11 -50 18 -92 l13 -78 -34 -30 c-19 -16 -28 -28
-20 -25 8 2 25 7 38 11 21 7 22 4 22 -37 0 -50 -8 -57 -56 -50 -43 7 -115 -27
-147 -69 -29 -37 -57 -98 -57 -123 0 -14 3 -13 27 2 21 14 25 14 20 3 -3 -8
-13 -40 -23 -70 -9 -29 -34 -80 -56 -111 -83 -122 -122 -289 -116 -493 l3
-120 -49 -9 c-108 -18 -209 31 -257 126 -67 130 -64 411 6 652 50 172 136 326
261 470 61 70 64 75 24 42 -134 -113 -257 -304 -320 -497 -77 -235 -79 -544
-5 -690 29 -57 90 -113 140 -130 37 -12 165 -10 196 4 13 6 17 -8 27 -82 28
-207 16 -243 -106 -324 l-72 -49 -153 59 c-83 33 -186 70 -227 82 -89 26 -96
30 -79 41 9 5 0 7 -21 4 -21 -3 -85 8 -163 27 l-129 33 -19 53 c-39 113 -122
221 -196 254 -36 16 -42 23 -53 67 -6 27 -9 71 -6 98 l6 48 -16 -45 c-14 -42
-14 -86 2 -137 4 -16 2 -23 -7 -23 -7 0 -21 -7 -31 -16 -14 -13 -21 -14 -32
-5 -29 24 -75 107 -87 156 -19 82 -28 96 -28 49 -1 -69 27 -142 73 -193 43
-46 43 -46 29 -80 -8 -19 -17 -64 -20 -101 l-6 -66 -66 7 c-36 4 -127 10 -201
14 -225 10 -260 14 -261 33 0 14 -2 13 -9 -3 -8 -18 -9 -18 -9 -2 -1 21 27 79
43 89 17 12 61 9 74 -4 6 -6 14 -9 18 -6 6 7 -22 36 -52 55 -18 11 -18 14 15
75 45 84 131 197 195 254 142 128 377 242 454 222 59 -16 57 -3 -2 20 -86 33
-203 53 -349 61 l-132 7 105 8 c113 8 295 -4 444 -30 83 -14 128 -14 70 0 -22
6 -134 82 -134 92 0 2 21 -9 48 -24 80 -47 169 -83 260 -104 48 -12 88 -23 90
-24 2 -1 -13 -37 -32 -80 -20 -42 -34 -79 -32 -81 8 -8 99 104 138 169 22 38
73 142 113 231 95 213 117 256 181 354 81 122 174 198 271 223 60 15 262 7
303 -12z m485 -87 l40 -8 -45 -12 c-66 -17 -129 -41 -184 -68 -27 -14 -52 -21
-56 -16 -8 8 -30 93 -30 114 0 9 29 10 118 5 64 -4 135 -11 157 -15z m-50
-180 c-44 -15 -101 -37 -127 -49 l-47 -20 -6 30 c-4 16 -5 32 -2 35 9 8 159
31 212 32 l50 1 -80 -29z m-2325 -41 c69 -35 94 -57 252 -223 l146 -154 -78 5
c-144 8 -353 -28 -488 -84 -34 -15 -61 -28 -59 -30 2 -2 44 4 93 13 139 25
554 21 554 -6 0 -4 -23 -13 -52 -21 -28 -7 -97 -35 -152 -63 -173 -87 -320
-253 -396 -449 -16 -40 -33 -74 -38 -76 -20 -6 -125 135 -172 233 -70 145 -85
212 -84 380 0 126 3 148 28 220 47 137 108 213 210 262 66 31 167 28 236 -7z
m2414 -280 c11 -19 30 -68 42 -109 l21 -74 25 54 c48 105 74 109 104 15 l16
-52 -30 -59 c-46 -93 -80 -214 -94 -335 -25 -223 25 -498 119 -660 2 -3 -17
-22 -41 -42 l-43 -37 -43 21 c-89 44 -264 32 -365 -26 -36 -20 -82 -25 -73 -8
28 53 50 116 63 179 35 165 29 452 -13 627 -32 135 -12 316 36 316 23 0 42
-20 76 -79 28 -50 24 -56 47 64 16 85 45 174 69 213 26 43 56 40 84 -8z m471
-42 c72 -62 127 -168 160 -308 23 -94 31 -328 15 -454 -12 -98 -14 -104 -45
-129 l-32 -26 -13 75 c-15 93 -52 144 -105 144 -62 0 -93 -57 -102 -184 -3
-56 0 -102 11 -151 9 -38 17 -76 19 -84 1 -8 -16 -18 -48 -27 -27 -7 -60 -16
-72 -20 -18 -5 -25 1 -43 37 -12 23 -32 83 -45 134 -94 371 -30 771 155 967
66 69 91 74 145 26z m-2842 -105 c-7 -2 -19 -2 -25 0 -7 3 -2 5 12 5 14 0 19
-2 13 -5z m1972 -188 c45 -96 74 -260 82 -461 3 -84 3 -160 -1 -170 -6 -16 -9
-14 -25 13 -38 61 -89 45 -112 -34 -18 -63 -15 -206 5 -260 l15 -43 -25 0
c-46 0 -62 18 -88 97 -88 266 -83 553 15 763 38 81 75 130 98 130 12 0 25 -14
36 -35z m-1476 -420 c16 -8 45 -34 66 -57 39 -46 112 -184 102 -194 -5 -5
-266 31 -304 42 -30 8 -4 164 33 205 20 23 64 25 103 4z m-720 -232 c6 -21 18
-49 27 -61 23 -34 5 -48 -35 -28 -33 17 -37 34 -25 95 9 42 21 39 33 -6z m227
27 c71 -6 171 -15 222 -21 91 -11 92 -12 92 -39 0 -86 76 -287 139 -364 l32
-40 -54 -55 c-29 -31 -61 -68 -70 -83 -12 -20 -26 -28 -45 -28 -15 0 -41 -4
-59 -9 -17 -5 -59 -7 -92 -4 l-61 6 0 47 c0 54 -12 91 -77 243 -57 133 -106
205 -158 233 -38 19 -66 55 -80 102 -6 20 -3 22 38 22 24 0 102 -5 173 -10z
m538 -65 c71 -13 132 -27 137 -32 5 -5 11 -35 14 -68 l6 -60 -20 37 c-29 51
-68 80 -92 68 -27 -15 -39 -43 -39 -93 0 -56 21 -127 50 -167 12 -17 21 -32
19 -34 -2 -2 -27 -11 -56 -21 l-52 -19 -21 25 c-54 63 -116 221 -135 347 l-7
42 34 0 c18 0 91 -11 162 -25z m276 -60 c106 -25 107 -26 56 -62 -56 -39 -104
-104 -119 -160 -6 -24 -17 -43 -23 -43 -9 0 -13 25 -12 93 1 50 -2 116 -6 146
-8 49 -7 53 10 48 11 -3 53 -13 94 -22z m-1030 -59 c0 -96 80 -296 161 -402
21 -28 39 -53 39 -56 0 -3 -11 -8 -25 -10 -21 -5 -25 -1 -25 20 0 13 -16 51
-35 83 -78 127 -155 326 -155 397 0 20 3 21 20 12 14 -7 20 -21 20 -44z m114
11 c49 -52 128 -194 102 -184 -10 4 -24 -1 -37 -14 -31 -31 -22 -128 19 -212
l31 -62 -36 40 c-44 50 -127 220 -147 301 -16 63 -21 155 -9 167 15 16 39 4
77 -36z m1137 -11 c96 -28 295 -96 353 -120 l39 -16 -71 -50 c-39 -28 -79 -50
-88 -50 -31 0 -248 -52 -337 -80 l-88 -28 -18 36 c-48 95 -31 179 55 272 31
33 60 60 64 60 4 0 45 -11 91 -24z m1818 -126 c6 -28 20 -68 31 -90 11 -22 20
-41 20 -43 0 -2 -40 -16 -90 -32 -49 -16 -88 -30 -86 -32 1 -2 46 8 99 22 l95
26 38 -26 c21 -14 48 -28 61 -31 27 -7 29 -17 7 -35 -9 -7 -38 -45 -64 -84
l-48 -72 -114 3 -113 3 105 -11 c58 -5 107 -11 108 -13 14 -14 -144 -197 -191
-221 -108 -57 -264 -24 -402 84 l-60 47 22 -36 23 -36 -23 -21 c-97 -91 -324
-32 -502 130 -58 53 -125 141 -125 165 0 5 27 8 63 7 l62 -3 -69 12 c-59 10
-70 16 -78 37 -13 34 -4 109 16 128 14 15 19 14 53 -1 35 -16 28 -6 -14 19
-16 10 -15 12 14 27 46 24 128 31 213 18 109 -17 113 -19 106 -47 -17 -67 77
-154 211 -194 39 -12 43 -11 69 13 16 15 68 48 117 74 99 52 126 87 107 137
-8 22 -6 28 13 40 65 43 198 83 279 85 36 1 37 0 47 -49z m-459 -33 c41 -20
38 -53 -7 -75 -77 -40 -231 -55 -283 -29 -35 17 -39 61 -8 78 70 38 245 53
298 26z m-826 -73 c-8 -18 -14 -62 -14 -97 0 -61 -1 -64 -22 -60 -13 2 -88 7
-168 11 l-145 8 55 52 c30 29 91 77 134 106 l79 54 48 -20 47 -20 -14 -34z
m-811 -56 c10 -29 20 -61 23 -70 8 -22 -34 -33 -199 -53 -70 -9 -141 -18 -157
-22 -43 -8 -37 8 21 61 68 61 205 125 289 135 3 1 14 -23 23 -51z m461 -20
c-26 -29 -53 -56 -59 -60 -14 -11 -285 -10 -285 1 0 11 327 108 374 110 14 1
7 -12 -30 -51z m2318 -35 c27 -31 67 -119 88 -194 32 -116 40 -111 -114 -74
-74 18 -173 38 -220 45 -46 7 -90 16 -97 20 -13 9 7 76 45 150 l24 45 93 11
c141 17 164 16 181 -3z m-1945 -115 c31 -65 96 -142 167 -198 59 -48 65 -56
81 -117 21 -78 84 -210 131 -275 19 -27 34 -50 34 -53 0 -3 -49 29 -110 70
-243 165 -391 211 -516 160 l-31 -13 10 42 c5 23 21 51 36 63 32 28 22 29 -27
4 -44 -22 -116 -97 -128 -132 -7 -23 -8 -23 -15 9 -14 69 21 344 57 435 6 17
3 17 -37 -3 -24 -13 -57 -32 -72 -42 -16 -11 -30 -18 -32 -16 -2 2 7 27 20 56
l24 52 194 0 193 0 21 -42z m-728 23 c15 -10 6 -33 -36 -88 -20 -28 -31 -33
-66 -34 l-42 -2 39 -6 40 -6 -50 -44 c-105 -94 -232 -120 -353 -72 -40 16 -51
18 -42 7 10 -12 6 -19 -26 -40 -95 -62 -278 -75 -359 -26 -48 30 -61 45 -74
90 -8 28 -7 37 6 46 9 8 11 13 4 16 -6 2 -8 11 -5 20 6 15 89 39 219 63 37 7
38 7 27 -14 -26 -47 36 -91 128 -91 47 0 51 2 57 28 6 21 40 81 70 120 1 2 35
8 76 13 40 5 91 11 113 14 l40 5 -25 -21 c-14 -11 -19 -18 -12 -14 74 39 233
60 271 36z m257 -33 c-4 -13 -9 -35 -12 -50 l-6 -28 -109 0 -108 0 15 44 15
44 52 -5 c29 -2 70 0 92 5 63 16 68 15 61 -10z m-771 -28 c0 -17 -97 -59 -138
-60 -30 0 -47 24 -29 42 15 15 102 37 137 35 19 -1 30 -7 30 -17z m-300 -10
c-116 -31 -117 -31 -110 -21 9 16 95 40 140 39 36 0 33 -2 -30 -18z m-182 -25
c-14 -19 -86 -55 -111 -55 -16 0 39 46 73 61 54 24 59 23 38 -6z m3182 -26
c55 -8 75 -15 75 -26 0 -12 -8 -14 -37 -10 -21 3 -62 9 -90 13 -51 6 -61 13
-46 27 8 9 9 9 98 -4z m-1955 -20 c0 -6 9 -9 20 -6 18 5 20 0 20 -41 0 -57
-32 -195 -62 -265 -32 -76 -94 -171 -135 -207 -19 -17 -37 -29 -40 -27 -2 3 0
22 6 44 6 21 11 52 11 68 -1 26 -3 23 -18 -20 -24 -70 -55 -110 -110 -142 -40
-24 -58 -28 -122 -28 -85 0 -131 19 -202 83 -41 37 -44 28 -5 -15 27 -31 7
-30 -60 1 -79 37 -162 97 -224 162 -51 54 -115 142 -107 149 2 1 40 6 85 9
l82 7 53 -53 c29 -29 87 -91 127 -137 89 -99 138 -127 212 -118 84 10 155 60
193 133 24 49 36 116 47 262 5 74 12 138 15 143 8 14 214 11 214 -2z m-1255
-9 c-3 -5 -16 -10 -28 -9 -21 0 -21 1 -2 9 28 12 37 12 30 0z m1365 3 c0 -5
-7 -42 -16 -83 -14 -66 -15 -202 -2 -261 3 -14 -92 -94 -152 -128 l-42 -23 41
60 c77 113 121 251 121 382 0 57 1 60 25 60 14 0 25 -3 25 -7z m2071 -12 c52
-11 142 -32 202 -47 l107 -26 0 -62 c0 -33 -8 -101 -17 -151 l-17 -90 -7 45
c-4 25 -13 59 -19 75 l-13 30 -9 -40 c-30 -136 -108 -327 -188 -460 -43 -71
-60 -90 -109 -120 -32 -19 -62 -35 -65 -35 -4 0 5 19 19 43 30 47 95 181 95
194 0 4 -18 -21 -39 -57 -94 -156 -231 -279 -352 -315 -82 -25 -195 -17 -274
19 -122 56 -231 165 -321 323 -46 81 -54 89 -29 30 25 -59 18 -61 -47 -10 -71
54 -102 87 -171 182 -50 68 -152 264 -163 314 l-7 29 59 -30 c71 -36 156 -62
200 -62 48 0 90 -56 190 -252 99 -195 152 -260 246 -307 50 -25 73 -31 129
-31 60 0 77 5 157 45 103 51 141 89 196 194 46 87 81 213 106 380 19 127 37
211 44 211 2 0 46 -9 97 -19z m-3437 -59 c3 -22 15 -51 26 -65 11 -14 20 -29
20 -34 0 -7 -114 -53 -133 -53 -13 0 -37 67 -37 104 0 19 4 46 10 60 8 23 15
26 58 26 l49 0 7 -38z m3816 -47 c0 -7 3 -28 6 -46 5 -31 3 -30 -20 16 -14 28
-26 51 -26 52 0 0 9 -1 20 -4 11 -3 20 -11 20 -18z m123 -31 c31 -10 57 -20
56 -23 0 -3 -27 -25 -59 -49 -73 -53 -146 -149 -206 -268 -36 -73 -60 -106
-126 -170 -44 -43 -79 -74 -77 -69 2 6 23 48 46 95 42 86 93 242 93 286 0 48
18 22 25 -36 4 -33 10 -60 15 -60 4 0 18 24 30 53 18 39 24 78 28 157 5 103 5
104 18 66 8 -21 17 -67 20 -103 4 -35 10 -60 15 -56 14 15 39 117 39 161 0 31
4 43 13 39 6 -2 38 -13 70 -23z m-3765 -79 c26 -5 37 -16 58 -58 29 -57 120
-156 171 -188 96 -60 -54 -5 -264 96 -134 64 -206 110 -201 127 2 6 33 22 68
38 64 27 66 27 100 10 19 -10 50 -21 68 -25z m807 25 c3 -5 1 -38 -6 -74 -21
-121 -88 -190 -198 -203 -56 -6 -73 8 -75 65 -1 42 22 85 54 102 19 10 20 8
20 -32 0 -24 5 -50 10 -58 7 -11 10 -5 10 25 1 48 28 112 62 143 37 34 110 53
123 32z m3451 -41 c70 -26 138 -73 179 -124 45 -54 44 -63 -2 -34 -21 13 -110
60 -198 106 l-160 84 65 -7 c36 -3 88 -15 116 -25z m-141 -43 c80 -35 202 -95
272 -133 l126 -68 27 -60 c60 -130 96 -316 109 -554 4 -80 9 -128 10 -106 1
22 6 48 10 59 6 15 10 10 20 -25 7 -24 37 -91 66 -149 204 -407 621 -854 1200
-1290 83 -62 154 -116 160 -121 5 -5 -255 -9 -605 -9 l-615 0 -114 117 c-156
162 -261 289 -342 412 -84 127 -107 188 -88 234 28 70 149 357 183 432 32 71
34 77 12 53 -68 -75 -219 -357 -317 -589 -29 -68 -109 -297 -179 -509 -70
-212 -146 -424 -168 -471 -118 -257 -260 -359 -497 -359 -261 0 -591 235 -720
512 -36 77 -33 87 39 136 176 118 310 303 357 493 12 46 23 86 24 87 2 2 31
-19 64 -47 114 -94 212 -137 340 -148 l73 -6 39 -59 c47 -73 68 -135 83 -246
l12 -87 12 53 c25 110 6 251 -44 327 -14 22 -14 23 33 34 236 59 443 295 443
505 0 92 -25 153 -88 216 -91 89 -168 103 -397 71 -192 -27 -218 -26 -285 5
-82 38 -81 34 -39 121 58 123 107 272 155 478 55 234 94 355 150 465 71 140
164 230 277 271 29 10 53 18 55 19 1 0 68 -29 147 -64z m-1117 9 c29 -9 52
-22 52 -29 0 -25 -40 -164 -60 -207 l-20 -44 1 45 c1 25 1 65 -1 90 -2 43 -3
42 -11 -20 -22 -174 -95 -277 -225 -316 -63 -19 -100 -17 -150 5 -82 37 -132
136 -115 226 20 108 102 177 174 149 12 -4 13 -12 6 -37 -5 -18 -9 -54 -8 -82
l1 -50 18 57 c59 189 174 261 338 213z m-1671 -75 c58 46 169 47 263 2 30 -15
36 -24 47 -72 46 -204 66 -546 44 -741 -15 -129 -42 -260 -74 -361 -18 -56
-21 -75 -11 -71 9 3 14 -2 14 -16 0 -30 33 -91 64 -120 24 -23 24 -25 10 -53
-15 -28 -16 -29 -30 -11 -14 17 -14 16 -9 -14 4 -22 0 -44 -15 -72 -11 -23
-22 -41 -24 -41 -16 0 -95 41 -100 52 -3 7 -4 -10 -2 -39 3 -29 12 -66 21 -83
16 -31 16 -33 -6 -56 -12 -13 -31 -26 -41 -30 -25 -7 -84 40 -147 119 -53 68
-129 117 -177 117 -23 0 -26 -2 -14 -10 22 -14 -49 -13 -106 1 -47 12 -84 48
-84 81 0 30 43 65 88 72 23 3 61 9 85 12 109 16 176 186 177 449 0 242 -62
473 -174 644 -51 77 -53 82 -34 92 11 6 38 27 60 47 31 28 41 33 48 22 7 -11
15 -1 30 35 12 28 31 66 43 85 l22 35 3 -48 3 -48 26 21z m-1402 -66 c103 -48
241 -97 400 -144 72 -20 130 -43 130 -49 0 -6 -3 -11 -7 -11 -5 0 -37 0 -73 0
-63 0 -65 1 -65 25 0 29 -8 32 -25 8 -11 -15 -15 -14 -46 9 -19 15 -54 31 -78
38 -147 39 -260 -83 -171 -183 17 -19 30 -37 30 -40 0 -3 -13 -8 -29 -12 -15
-3 -41 -19 -56 -35 -34 -35 -28 -37 26 -9 63 32 124 35 192 9 73 -27 112 -61
190 -164 34 -45 81 -102 105 -127 l43 -47 -108 -45 c-132 -55 -195 -74 -294
-87 -137 -17 -244 13 -308 86 -87 98 -88 225 -6 525 25 90 48 192 51 227 4 34
10 62 14 62 4 0 42 -16 85 -36z m1902 -66 c133 -90 134 -92 86 -117 -47 -24
-105 -83 -130 -135 l-20 -39 -12 79 c-11 69 -49 229 -67 286 -5 18 -4 19 18 7
12 -6 69 -43 125 -81z m-746 -120 c21 -41 17 -45 -21 -23 -43 25 -44 16 -2
-17 60 -49 77 -75 106 -167 48 -152 60 -247 61 -476 0 -171 -3 -220 -17 -266
-24 -77 -43 -91 -143 -105 -106 -16 -135 -30 -157 -75 -20 -39 -12 -86 18
-120 20 -22 103 -49 151 -49 18 0 33 -3 33 -6 0 -3 -19 -42 -41 -85 l-41 -79
-108 0 c-146 0 -198 -17 -271 -90 -34 -34 -61 -71 -69 -95 -7 -22 -17 -45 -21
-51 -5 -6 -42 -14 -82 -18 -209 -18 -372 64 -452 227 -91 187 -56 362 118 602
28 39 68 99 88 134 36 60 42 66 111 96 41 17 99 48 130 67 l55 36 29 -19 c86
-57 234 -81 287 -46 24 16 28 15 69 -3 100 -46 208 -2 208 83 0 19 10 38 30
57 36 33 40 76 10 108 -11 11 -65 44 -121 73 -70 36 -123 73 -174 120 -117
108 -180 130 -259 89 l-39 -19 -43 37 c-27 23 -43 46 -44 60 0 22 0 22 53 -8
88 -49 188 -49 258 1 14 10 68 32 120 48 52 17 101 35 109 41 17 11 30 -2 61
-62z m-894 7 c30 -9 70 -32 99 -57 26 -24 45 -35 41 -25 -5 14 0 17 34 17 73
0 153 -48 215 -128 36 -47 45 -42 19 9 -16 30 -16 30 20 45 62 26 130 -3 247
-103 31 -26 92 -68 135 -92 95 -53 123 -77 123 -108 0 -35 -24 -38 -63 -9 -18
14 -59 37 -91 51 -32 14 -83 41 -113 61 -30 19 -57 33 -60 30 -11 -11 96 -104
149 -129 31 -15 70 -38 87 -53 59 -49 31 -114 -51 -114 -62 0 -85 14 -81 47 7
48 -32 91 -131 145 -50 27 -98 56 -108 65 -10 9 -20 14 -23 11 -11 -11 41 -62
106 -104 82 -52 107 -84 91 -118 -16 -35 -70 -50 -132 -37 -115 25 -202 89
-317 234 -102 129 -124 147 -230 187 -91 35 -133 67 -133 104 0 39 11 57 44
72 40 17 62 17 123 -1z m1972 -130 c118 -86 152 -117 191 -173 49 -70 124
-143 171 -168 44 -22 98 -182 99 -291 0 -33 -4 -43 -20 -48 -11 -3 -53 -30
-94 -60 l-75 -54 -68 35 c-120 61 -238 67 -368 20 l-63 -23 -5 56 c-4 31 -18
93 -32 139 -14 45 -37 119 -51 165 -50 160 -41 312 22 410 26 39 105 97 134
97 9 0 80 -47 159 -105z m1265 -165 c-24 -102 -49 -204 -55 -227 l-11 -42 -29
14 c-87 45 -148 -19 -184 -190 -9 -44 -17 -81 -19 -82 -10 -10 -71 35 -95 71
-63 91 -131 101 -171 27 -6 -12 -31 -21 -79 -29 -38 -7 -74 -12 -79 -12 -5 0
-12 33 -15 73 -4 40 -13 92 -22 116 -8 24 -15 45 -15 48 0 6 74 -8 83 -17 4
-4 19 -34 32 -66 l25 -59 0 42 c0 23 -4 53 -9 66 -10 27 1 37 38 37 10 0 53
17 97 39 43 21 90 42 104 46 101 30 239 123 354 239 50 50 92 91 93 91 0 0
-19 -83 -43 -185z m-4596 -178 c76 -29 137 -76 272 -207 175 -171 314 -284
418 -341 6 -3 -42 -94 -49 -94 -17 0 -229 213 -319 320 -150 178 -261 272
-376 319 -41 17 -45 20 -22 20 15 1 50 -7 76 -17z m2990 -194 c28 -90 54 -185
57 -211 6 -46 4 -51 -32 -90 -21 -23 -54 -63 -72 -89 -19 -27 -38 -48 -41 -48
-20 0 -62 47 -85 95 l-27 54 35 83 c43 100 72 198 89 296 6 39 15 72 18 72 3
0 29 -73 58 -162z m1516 79 c18 -13 17 -19 -23 -138 -23 -68 -47 -136 -54
-151 l-12 -28 -42 28 c-49 31 -51 42 -27 141 18 70 37 115 62 144 18 20 71 23
96 4z m-340 -166 c22 -24 21 -24 -58 -7 l-60 12 22 22 c20 20 25 21 50 8 15
-8 36 -23 46 -35z m-2850 -93 c-152 -212 -204 -332 -204 -468 1 -215 135 -385
341 -430 32 -7 99 -11 161 -8 l106 3 6 -49 c12 -106 82 -199 187 -249 35 -16
52 -32 65 -60 10 -21 43 -62 75 -91 97 -91 249 -136 453 -136 111 0 117 -1
162 -30 54 -34 148 -67 217 -76 36 -5 47 -11 47 -25 0 -28 -19 -64 -43 -78
-18 -12 -23 -11 -32 4 -42 72 -120 121 -212 130 l-48 5 60 -22 c82 -32 145
-92 145 -141 0 -49 -38 -91 -108 -118 -82 -33 -254 -33 -366 -1 -101 29 -233
97 -311 160 -48 39 -62 58 -72 93 -6 24 -38 82 -69 129 -128 188 -147 220
-205 333 l-60 118 33 13 c18 7 40 16 48 19 8 3 -8 6 -37 6 -38 1 -55 6 -62 19
-19 33 -12 -55 10 -120 27 -80 74 -173 165 -325 94 -156 106 -186 107 -253 1
-71 -19 -109 -102 -188 -122 -117 -313 -190 -469 -179 -162 12 -211 110 -106
213 l45 43 -33 -11 c-76 -26 -118 -76 -118 -143 0 -41 -13 -44 -69 -15 -108
55 -109 159 -1 231 58 39 132 65 257 90 101 21 107 21 137 5 19 -11 5 5 -34
40 -128 113 -386 381 -451 467 -177 238 -261 450 -246 627 16 186 100 358 254
521 l53 56 63 -14 c74 -18 180 -12 277 15 36 10 67 17 69 16 2 -2 -36 -58 -85
-126z m2839 -3 c71 -18 140 -53 236 -117 119 -81 170 -101 260 -100 42 0 122
8 178 16 227 35 316 8 370 -112 105 -228 -187 -553 -496 -552 -71 0 -179 27
-246 59 -33 17 -105 66 -160 111 -110 88 -220 150 -269 150 -30 0 -29 -2 23
-30 29 -16 78 -51 108 -76 52 -45 54 -49 48 -83 -4 -20 -17 -67 -30 -104 -105
-306 -429 -544 -895 -658 -130 -31 -364 -34 -454 -5 -132 44 -207 128 -214
242 -11 176 146 274 487 303 63 6 116 12 118 15 2 2 -39 7 -93 11 -292 22
-507 -52 -579 -200 -23 -49 -32 -160 -15 -209 6 -19 22 -51 35 -71 l24 -35
-33 0 c-64 0 -208 31 -284 60 -155 60 -232 151 -232 274 1 204 182 287 596
273 190 -6 341 4 424 30 l55 17 -305 8 c-168 5 -345 6 -395 2 -310 -19 -448
-114 -464 -317 l-6 -77 -37 26 c-21 15 -54 51 -75 81 -30 44 -38 65 -41 114
-4 52 0 68 28 125 72 147 190 177 541 138 231 -25 307 -8 401 95 29 31 85 111
123 176 91 156 145 226 206 271 70 51 179 84 281 84 77 0 198 -24 198 -40 0
-4 -9 -15 -19 -24 -35 -32 -114 -139 -95 -128 10 6 30 22 44 37 34 37 143 116
213 155 135 75 304 100 440 65z m-1797 -481 c-4 -15 -20 -55 -36 -90 -24 -53
-33 -64 -53 -64 -36 0 -38 9 -12 48 14 20 32 58 41 84 13 40 20 48 41 48 22 0
24 -3 19 -26z m398 -39 c-9 -21 -19 -19 -38 10 -23 34 -20 38 14 20 19 -10 27
-20 24 -30z m-268 -27 c27 -33 57 -72 67 -85 l19 -23 -84 0 c-134 0 -131 -3
-95 91 17 43 34 79 37 79 4 0 29 -28 56 -62z m3056 -176 c61 -126 175 -276
332 -438 69 -71 126 -130 126 -131 0 -2 -166 -3 -370 -3 -203 0 -370 3 -370 6
0 34 217 665 229 663 3 0 27 -44 53 -97z"/>
<path d="M2240 5068 c24 -12 70 -49 102 -81 64 -65 76 -63 25 5 -34 44 -116
97 -152 98 -12 0 -3 -9 25 -22z"/>
<path d="M1994 5066 c-38 -17 -64 -52 -64 -85 l0 -24 20 26 c26 33 81 51 128
42 94 -17 219 -110 285 -210 31 -47 38 -54 32 -30 -19 84 -123 209 -215 259
-61 33 -141 43 -186 22z"/>
<path d="M2313 3713 c9 -2 23 -2 30 0 6 3 -1 5 -18 5 -16 0 -22 -2 -12 -5z"/>
</g>
</svg>
